<svg height="512" viewBox="0 0 32 32" width="512" xmlns="http://www.w3.org/2000/svg"><g id="recycle"><g><g fill="#66bb6a"><path d="m24.8886719 24.9882813c.1875.1875.2929688.4414063.2929688.7070313s-.1054688.5195313-.2929688.7070313c-2.6469727 2.6464844-6.1621094 4.1035156-9.8974609 4.1035156-2.7241211 0-5.331543-.7724609-7.5932617-2.2431641l-.9492188.9501953c-.2861328.2861328-.7163086.3730469-1.0898438.2167969-.3740234-.1542969-.6176758-.5195313-.6176758-.9238281v-6c0-.5527344.4477539-1 1-1h6c.4042969 0 .769043.2431641.9238281.6171875s.0693359.8037109-.2167969 1.0898438l-.6318359.6318359c.9921875.4345703 2.0703125.6611328 3.1748047.6611328 2.1416016 0 4.1484375-.8330078 5.6508789-2.3457031.1875-.1884766.4418945-.2949219.7080078-.2949219h.0014648c.2651367 0 .5195313.1054688.7070313.2929688z"/><path d="m30.2680664 17.5498047-1.2978516-.3476563c.1425781-2.6923828-.4921875-5.3369141-1.8554688-7.6982422-1.8691406-3.2363281-4.8881836-5.5517578-8.5004883-6.5185547-.5366211-.1435547-1.0820313.1738281-1.2246094.7070313l-1.0361328 3.8652344c-.0688477.2568359-.0327148.5302734.1005859.7597656.1333008.2304688.3525391.3974609.609375.4658203 2.0595703.5449219 3.7841797 1.8662109 4.8554688 3.7207031.5522461.9570313.8959961 2.0039063 1.015625 3.0800781l-.8623047-.2314453c-.3920898-.1064453-.8066406.0351563-1.0527344.3564453-.246582.3212891-.2753906.7587891-.0732422 1.109375l3 5.1972656c.1328125.2294922.3510742.3974609.6074219.4658203.0849609.0224609.171875.0341797.2587891.0341797.1738281 0 .3466797-.0458984.5-.1337891l5.1962891-3c.3500977-.2021484.5444336-.5957031.4916992-.9970703-.0527343-.4003905-.3417968-.7304686-.7324218-.8349608z"/><path d="m7.168457 19.3330078c.1323242-.2304688.1679688-.5039063.0986328-.7607422-.5576171-2.0585937-.2753906-4.2128906.7954102-6.0664062.5522461-.9570313 1.2871094-1.7783203 2.1591797-2.4199219l.2314453.8642578c.1044922.390625.434082.6796875.8349609.7324219.3999023.0517578.7944336-.140625.9970703-.4912109l3-5.1972656c.2758789-.4785156.1118164-1.0898438-.3662109-1.3662109l-5.1962891-3c-.3500977-.203125-.7880859-.1738281-1.1088867.0732422-.3208007.2460936-.461914.6611327-.3569336 1.0517577l.3481445 1.296875c-2.4042968 1.2246094-4.3774413 3.0966797-5.7392577 5.4560547-1.8676758 3.2363281-2.3632813 7.0087891-1.3955078 10.6220703.1196289.4462891.5234375.7412109.965332.7412109.0854492 0 .1723633-.0107422.2592773-.0341797l3.8657227-1.0351563c.2563476-.0683593.4750976-.236328.6079101-.4667968z"/></g><path d="m24.8901367 24.9902344-2.8300781-2.8300781c-.1899414-.1904297-.4399414-.2900391-.7099609-.2900391s-.5200195.0996094-.7099609.2900391c-1.260254 1.2695312-2.8803712 2.0703125-4.6401368 2.2802734v6.0292969c3.3598633-.2294922 6.4799805-1.6601563 8.8901367-4.0693359.1899414-.1904297.2900391-.4404297.2900391-.7001953 0-.2705079-.1000977-.5205079-.2900391-.709961zm5.3798828-7.4404297-1.2998047-.3496094c.1396485-2.6904297-.4902343-5.3300781-1.8603515-7.7001953-1.8598633-3.2304688-4.8798828-5.5498047-8.5-6.5097656-.5297852-.1503906-1.0800781.1699219-1.2197266.7001953l-1.0400391 3.8691406c-.0703125.25-.0302734.5302734.1000977.7607422.1396484.2294922.3598633.3896484.6098633.4599609 2.0600586.5498047 3.7900391 1.8701172 4.8598633 3.7197266.550293.9599609.8901367 2.0097656 1.0102539 3.0800781l-.8603516-.2304688c-.3896484-.0996094-.7998047.0400391-1.0498047.3603516s-.2797852.7597656-.0698242 1.1103516l3 5.1992188c.1298828.2304688.3496094.390625.5996094.4609375.090332.0195313.1801758.0390625.2602539.0390625.1801758 0 .3500977-.0498047.5-.1396484l5.199707-3c.3500977-.2001953.5400391-.5898438.4902344-1-.0498047-.3994141-.3398437-.7294923-.7299805-.8300782z" opacity=".1"/></g></g></svg>