<svg height="511pt" viewBox="-11 1 511 511.999" width="511pt" xmlns="http://www.w3.org/2000/svg"><path d="m449.523438 212.132812c0 113.015626-91.617188 204.636719-204.632813 204.636719-113.019531 0-204.636719-91.621093-204.636719-204.636719 0-113.015624 91.617188-204.632812 204.636719-204.632812 113.015625 0 204.632813 91.617188 204.632813 204.632812zm0 0" fill="#ffc843"/><path d="m449.519531 212.128906c0 113.019532-91.609375 204.640625-204.628906 204.640625-6.242187 0-12.410156-.28125-18.5-.828125 104.347656-9.339844 186.128906-97.03125 186.128906-203.8125 0-106.777344-81.78125-194.457031-186.128906-203.800781 6.089844-.546875 12.257813-.828125 18.5-.828125 113.019531 0 204.628906 91.621094 204.628906 204.628906zm0 0" fill="#f7a500"/><path d="m272.613281 445.140625 14.273438-14.269531c1.464843-1.464844 2.125-3.554688 1.742187-5.589844-1.660156-8.878906-2.230468-30.546875 21.898438-57.003906.5625-.699219 1.167968-1.375 1.816406-2.023438l35.59375-35.59375c6.988281-6.988281 18.707031-8.015625 25.699219-1.027344 1.675781 1.679688 4.597656 4.523438 4.597656 4.523438l32.90625-32.90625c5.535156-5.53125 14.550781-5.941406 20.273437-.605469 6.011719 5.601563 6.136719 15.011719.375 20.769531l12.828126-12.828124c5.535156-5.535157 14.550781-5.945313 20.277343-.609376 6.007813 5.601563 6.128907 15.011719.375 20.769532l-8.089843 8.085937c5.757812-5.757812 15.179687-5.628906 20.773437.382813 5.332031 5.726562 4.917969 14.738281-.613281 20.269531l-25.167969 25.167969c5.757813-5.757813 15.179687-5.632813 20.773437.382812 5.332032 5.726563 4.917969 14.738282-.613281 20.269532l-58.992187 58.992187c-28.464844 28.464844-52.089844 27.949219-61.480469 26.195313-2.058594-.382813-4.171875.296874-5.648437 1.777343l-14.234376 14.230469zm0 0" fill="#fff"/><path d="m272.613281 445.136719 14.269531-14.269531c1.46875-1.464844 2.125-3.550782 1.746094-5.585938-1.660156-8.875-2.230468-30.542969 21.898438-57.007812.5625-.695313 1.167968-1.371094 1.820312-2.023438l35.59375-35.589844c6.984375-6.984375 18.710938-8.019531 25.695313-1.035156.929687.929688 2.242187 2.21875 3.226562 3.179688-4.464843.390624-8.875 2.375-12.210937 5.710937l-35.59375 35.589844c-.644532.648437-1.25 1.324219-1.816406 2.023437-24.125 26.457032-23.558594 48.125-21.894532 57.011719.386719 2.03125-.28125 4.121094-1.742187 5.582031l-18.703125 18.703125zm0 0" fill="#76ffd9"/><path d="m217.164062 445.140625-14.269531-14.269531c-1.464843-1.464844-2.128906-3.554688-1.746093-5.589844 1.664062-8.878906 2.230468-30.546875-21.894532-57.003906-.566406-.699219-1.171875-1.375-1.820312-2.023438l-35.589844-35.59375c-6.988281-6.988281-18.710938-8.015625-25.699219-1.027344-1.679687 1.679688-4.601562 4.523438-4.601562 4.523438l-32.90625-32.90625c-5.53125-5.53125-14.546875-5.941406-20.273438-.605469-6.007812 5.601563-6.132812 15.011719-.375 20.769531l-12.828125-12.832031c-5.535156-5.535156-14.550781-5.941406-20.277344-.605469-6.007812 5.597657-6.128906 15.011719-.375 20.765626l8.089844 8.089843c-5.757812-5.757812-15.179687-5.632812-20.773437.382813-5.332031 5.722656-4.917969 14.734375.613281 20.265625l25.167969 25.167969c-5.757813-5.757813-15.179688-5.628907-20.773438.382812-5.328125 5.726562-4.917969 14.738281.613281 20.269531l58.992188 58.996094c28.464844 28.460937 52.089844 27.949219 61.484375 26.195313 2.054687-.386719 4.167969.292968 5.648437 1.773437l14.234376 14.234375zm0 0" fill="#fff"/><path d="m217.164062 445.136719-14.269531-14.269531c-1.464843-1.464844-2.125-3.550782-1.746093-5.585938 1.664062-8.875 2.230468-30.542969-21.902344-57.007812-.558594-.695313-1.164063-1.371094-1.816406-2.023438l-35.59375-35.589844c-6.984376-6.984375-18.710938-8.019531-25.695313-1.035156-.929687.929688-2.242187 2.21875-3.226563 3.179688 4.464844.390624 8.875 2.375 12.210938 5.710937l35.59375 35.589844c.644531.648437 1.25 1.324219 1.816406 2.023437 24.125 26.457032 23.558594 48.125 21.894532 57.011719-.386719 2.03125.28125 4.121094 1.742187 5.582031l18.703125 18.703125zm0 0" fill="#76ffd9"/><path d="m104.324219 73.9375c37.371093-38.007812 87.292969-58.9375 140.566406-58.9375 64.796875 0 125.492187 31.894531 162.355469 85.316406 1.457031 2.109375 3.800781 3.242188 6.183594 3.242188 1.46875 0 2.949218-.433594 4.25-1.328125 3.410156-2.355469 4.265624-7.023438 1.914062-10.433594-39.664062-57.480469-104.976562-91.796875-174.703125-91.796875-57.328125 0-111.046875 22.523438-151.261719 63.417969-2.902344 2.953125-2.863281 7.703125.089844 10.605469 2.953125 2.90625 7.703125 2.867187 10.605469-.085938zm0 0" fill="#474d54"/><path d="m400.945312 463.554688c-22.96875 19.605468-41.011718 18.8125-47.707031 17.5625-4.476562-.839844-9.089843.601562-12.332031 3.84375l-14.234375 14.234374c-2.929687 2.929688-2.929687 7.679688 0 10.605469 1.464844 1.464844 3.382813 2.199219 5.304687 2.199219 1.917969 0 3.839844-.734375 5.300782-2.195312l13.832031-13.828126c11.152344 1.921876 33.191406 1.507813 59.574219-21.015624 3.148437-2.6875 3.523437-7.421876.835937-10.570313-2.691406-3.152344-7.425781-3.527344-10.574219-.835937zm0 0" fill="#474d54"/><path d="m472.199219 373.230469 10.445312-10.445313c8.527344-8.527344 8.878907-22.003906.800781-30.683594-2.269531-2.4375-4.984374-4.285156-7.980468-5.46875 1.054687-2.65625 1.578125-5.527343 1.527344-8.480468-.105469-6.003906-2.585938-11.5625-6.984376-15.664063-8.039062-7.492187-20.199218-7.75-28.726562-.964843-.640625-1.292969-1.417969-2.515626-2.3125-3.671876 11.96875-27.046874 18.054688-55.867187 18.054688-85.71875 0-30.699218-6.425782-60.328124-19.09375-88.058593-1.722657-3.765625-6.167969-5.425781-9.941407-3.703125-3.765625 1.71875-5.425781 6.167968-3.703125 9.9375 11.769532 25.757812 17.738282 53.289062 17.738282 81.824218 0 27.011719-5.347657 53.109376-15.890626 77.65625-7.066406-1.46875-14.730468.589844-20.292968 6.152344l-27.660156 27.660156c-9.792969-8.96875-25.515626-8.277343-35.542969 1.753907l-35.597657 35.589843c-.757812.761719-1.496093 1.578126-2.195312 2.433594-11.21875 12.339844-18.679688 25.132813-22.175781 38.027344-.410157 1.523438-.75 2.996094-1.035157 4.425781-24.09375 4.53125-49.390624 4.535157-73.488281 0-.285156-1.429687-.621093-2.902343-1.035156-4.425781-3.496094-12.894531-10.957031-25.6875-22.171875-38.027344-.699219-.851562-1.4375-1.667968-2.199219-2.433594l-35.59375-35.59375c-10.03125-10.027343-25.75-10.722656-35.546875-1.75l-27.65625-27.660156c-5.5625-5.558594-13.226562-7.617187-20.292968-6.152344-10.542969-24.550781-15.894532-50.648437-15.894532-77.65625 0-40.476562 12.1875-79.375 35.238282-112.488281 2.367187-3.398437 1.53125-8.074219-1.867188-10.441406s-8.074219-1.527344-10.441406 1.871094c-24.8125 35.640625-37.929688 77.503906-37.929688 121.058593 0 29.847657 6.085938 58.667969 18.054688 85.71875-.894532 1.15625-1.671875 2.378907-2.3125 3.671876-8.527344-6.785157-20.6875-6.527344-28.726563.964843-4.398437 4.101563-6.878906 9.664063-6.984375 15.664063-.050781 2.953125.476563 5.820312 1.527344 8.480468-2.992188 1.183594-5.710938 3.03125-7.980469 5.46875-8.074219 8.679688-7.726562 22.15625.800781 30.683594l10.445313 10.445313c-2.308594 1.15625-4.417969 2.734375-6.238281 4.691406-8.078125 8.675781-7.726563 22.152344.800781 30.679687l58.992187 58.996094c13.234376 13.230469 27.039063 22.082032 41.03125 26.304688 11.46875 3.460937 20.644532 3.078125 26.507813 2.070312l13.824219 13.832032c1.46875 1.460937 3.386718 2.195312 5.304687 2.195312 1.921875 0 3.839844-.734375 5.304688-2.195312 2.929687-2.933594 2.929687-7.679688 0-10.609376l-14.234375-14.234374c-3.246094-3.242188-7.851563-4.679688-12.328125-3.84375-7.769531 1.453124-28.667969 2.003906-54.800781-24.128907l-58.992188-58.992187c-2.742188-2.742188-2.933594-7.160156-.429688-9.855469 1.296876-1.394531 3.058594-2.179687 4.957032-2.214844 1.917968-.035156 3.671875.683594 5.015625 2.019531.003906 0 .003906.003907.007812.007813l29.945313 29.945313c1.464844 1.464843 3.386718 2.199218 5.304687 2.199218s3.839844-.734375 5.304688-2.199218c2.929687-2.929688 2.929687-7.675782 0-10.605469l-55.113281-55.113281c-2.742188-2.742188-2.933594-7.164063-.429688-9.855469 1.300781-1.394531 3.058594-2.183594 4.957031-2.214844 1.894531-.050781 3.683594.6875 5.023438 2.027344l54.246093 54.242187c1.464844 1.464844 3.382813 2.195313 5.304688 2.195313 1.917969 0 3.835938-.730469 5.300781-2.195313 2.929688-2.929687 2.929688-7.675781 0-10.605468l-62.332031-62.332032c-1.339844-1.339844-2.0625-3.125-2.027344-5.023437.03125-1.894531.820313-3.65625 2.210938-4.953125 2.695312-2.511719 7.117187-2.320313 9.859375.421875l62.089843 62.089843c1.464844 1.464844 3.382813 2.195313 5.300782 2.195313 1.921875 0 3.839844-.730469 5.304687-2.195313 2.929688-2.929687 2.929688-7.679687 0-10.609374l-49.257812-49.257813c-1.34375-1.339844-2.0625-3.125-2.03125-5.019531.035156-1.898438.820312-3.65625 2.21875-4.957032 2.691406-2.507812 7.113281-2.320312 9.855469.421876l50.128906 50.132812c1.464844 1.460938 3.386718 2.195312 5.304687 2.195312s3.839844-.734374 5.304688-2.195312c2.929687-2.929688 2.929687-7.679688 0-10.609375l-11.828125-11.828125c2.265625-1.761719 4.890625-1.933594 6.335937-1.851562 2.949219.160156 5.851563 1.460937 7.957031 3.566406l35.59375 35.59375c.445313.449218.878907.929687 1.289063 1.4375.09375.113281.1875.226562.289063.339844 22.117187 24.253906 21.402343 43.445312 20.066406 50.570312-.835938 4.464844.59375 9.050781 3.8125 12.269531l14.269531 14.273438c2.929687 2.929687 7.679687 2.929687 10.609375 0 2.929688-2.929688 2.929688-7.679688 0-10.605469l-13.828125-13.832031c.238281-1.386719.441406-2.976563.566406-4.746094 11.738281 1.988281 23.707031 3.007813 35.683594 3.007813s23.945313-1.019532 35.683594-3.007813c.125 1.769531.328125 3.359375.566406 4.746094l-13.828125 13.828125c-2.929688 2.929687-2.929688 7.679687 0 10.609375 1.464844 1.460937 3.386719 2.195312 5.304688 2.195312 1.917968 0 3.839843-.734375 5.304687-2.195312l14.269531-14.273438c3.222656-3.222656 4.648438-7.8125 3.8125-12.269531-1.332031-7.125-2.046875-26.316406 20.066406-50.570312.101563-.113282.199219-.226563.292969-.339844.410157-.511719.84375-.992188 1.289063-1.4375l35.589844-35.589844c2.109374-2.109375 5.007812-3.410156 7.957031-3.570312 1.449219-.082032 4.070312.089843 6.339843 1.851562l-11.828124 11.828125c-2.929688 2.929687-2.929688 7.679687 0 10.609375 1.464843 1.460938 3.386718 2.195312 5.304687 2.195312s3.839844-.734374 5.304687-2.195312l50.128907-50.132812c2.742187-2.746094 7.164062-2.929688 9.855469-.421876 1.394531 1.300782 2.183593 3.058594 2.214843 4.957032.035157 1.894531-.6875 3.679687-2.027343 5.019531-.003907.003906-.007813.007813-.011719.007813l-49.25 49.25c-2.925781 2.933593-2.925781 7.679687 0 10.609374 1.464843 1.464844 3.386719 2.195313 5.304687 2.195313 1.917969 0 3.839844-.730469 5.304688-2.195313l62.089844-62.089843c2.742187-2.742188 7.160156-2.933594 9.855468-.421875 1.394532 1.300781 2.179688 3.058594 2.214844 4.953125.03125 1.898437-.6875 3.683593-2.027344 5.023437l-62.335937 62.332032c-2.925781 2.929687-2.925781 7.675781 0 10.605468 1.464843 1.464844 3.386719 2.195313 5.304687 2.195313 1.917969 0 3.839844-.730469 5.304688-2.195313l54.242187-54.242187c.003907-.003907.003907-.003907.007813-.003907 1.339844-1.339843 3.136718-2.070312 5.019531-2.023437 1.894531.03125 3.65625.820313 4.957031 2.214844 2.503906 2.691406 2.3125 7.113281-.429687 9.855469l-55.113281 55.113281c-2.929688 2.929687-2.929688 7.679687 0 10.605469 1.464843 1.464843 3.386718 2.199218 5.304687 2.199218s3.839844-.734375 5.304687-2.199218l29.945313-29.945313s.003906-.003906.003906-.003906c1.339844-1.339844 3.152344-2.054688 5.019531-2.023438 1.894532.035157 3.65625.820313 4.957032 2.214844 2.503906 2.695313 2.3125 7.117187-.429688 9.855469l-41.824218 41.828125c-2.929688 2.929687-2.929688 7.679687 0 10.605469 2.929687 2.929687 7.675781 2.929687 10.605468 0l41.824219-41.824219c8.527344-8.527344 8.878906-22.003907.800781-30.683594-1.824218-1.957031-3.933594-3.53125-6.242187-4.691406zm0 0" fill="#474d54"/><g fill="#fff"><path d="m244.890625 331.101562c63.683594 0 115.5-51.816406 115.5-115.5 0-4.144531-3.359375-7.5-7.5-7.5-4.144531 0-7.5 3.355469-7.5 7.5 0 55.414063-45.085937 100.5-100.5 100.5-55.417969 0-100.5-45.085937-100.5-100.5 0-4.144531-3.359375-7.5-7.5-7.5-4.144531 0-7.5 3.355469-7.5 7.5 0 63.683594 51.8125 115.5 115.5 115.5zm0 0"/><path d="m322.960938 134.882812c-20.949219 0-37.988282 17.042969-37.988282 37.992188 0 4.144531 3.355469 7.5 7.5 7.5 4.140625 0 7.5-3.355469 7.5-7.5 0-12.679688 10.3125-22.992188 22.988282-22.992188 12.675781 0 22.988281 10.3125 22.988281 22.992188 0 4.144531 3.359375 7.5 7.5 7.5 4.144531 0 7.5-3.355469 7.5-7.5.003906-20.949219-17.039063-37.992188-37.988281-37.992188zm0 0"/><path d="m143.828125 172.875c0-12.679688 10.3125-22.992188 22.988281-22.992188 12.675782 0 22.992188 10.3125 22.992188 22.992188 0 4.144531 3.355468 7.5 7.5 7.5 4.140625 0 7.5-3.355469 7.5-7.5 0-20.949219-17.042969-37.992188-37.992188-37.992188-20.949218 0-37.988281 17.042969-37.988281 37.992188 0 4.144531 3.355469 7.5 7.5 7.5 4.140625 0 7.5-3.355469 7.5-7.5zm0 0"/></g></svg>