<svg height="512pt" viewBox="0 0 512 512" width="512pt" xmlns="http://www.w3.org/2000/svg"><path d="m270.699219 256v86.101562l-9.300781 40.496094c-1.796876 3.003906-3.597657 5.703125-5.398438 8.402344-14.097656 18.601562-36.300781 30-60 30-41.398438 0-75-33.601562-75-75v-90l53.101562-61.199219 81.898438 51.898438zm0 0" fill="#5a5a5a"/><path d="m270.699219 342.101562-9.300781 40.496094c-1.796876 3.003906-3.597657 5.703125-5.398438 8.402344v-144.300781l14.699219 9.300781" fill="#93bf00"/><path d="m316 211c-22.199219 0-43.199219 6.898438-60 19.199219-27.300781 18.898437-45 50.402343-45 85.800781s17.699219 66.898438 45 85.800781c16.800781 12.296875 37.800781 19.199219 60 19.199219 57.898438 0 105-47.101562 105-105s-47.101562-105-105-105zm0 0" fill="#deecf1"/><path d="m271 166-.300781 90h-149.699219v-90c0-41.398438 33.601562-75 75-75 24.601562 0 46.5 12 60 30.300781 9.601562 12.296875 15 27.898438 15 44.699219zm0 0" fill="#4bb9ec"/><path d="m271 166-.300781 90h-14.699219v-134.699219c9.601562 12.296875 15 27.898438 15 44.699219zm0 0" fill="#00a0d8"/><path d="m421 316c0 57.898438-47.101562 105-105 105-22.199219 0-43.199219-6.902344-60-19.199219v-171.601562c16.800781-12.300781 37.800781-19.199219 60-19.199219 57.898438 0 105 47.101562 105 105zm0 0" fill="#c6e2e7"/><path d="m256 0c-141 0-256 115-256 256s115 256 256 256 256-115 256-256-115-256-256-256zm0 482c-124.199219 0-226-101.5-226-226 0-55.199219 20.800781-107.101562 56.800781-147.898438l317.097657 317.097657c-40.796876 36-92.699219 56.800781-147.898438 56.800781zm169.199219-78.101562-317.097657-317.097657c40.796876-36 92.699219-56.800781 147.898438-56.800781 124.199219 0 226 101.5 226 226 0 55.199219-20.800781 107.101562-56.800781 147.898438zm0 0" fill="#ff6c6c"/><path d="m512 256c0 141-115 256-256 256v-30c55.199219 0 107.101562-20.800781 147.898438-56.800781l-147.898438-147.898438v-42.601562l169.199219 169.199219c36-40.796876 56.800781-92.699219 56.800781-147.898438 0-124.5-101.800781-226-226-226v-30c141 0 256 115 256 256zm0 0" fill="#ff4949"/></svg>